HIERARCHY
ROOT Hips
{
	OFFSET	0.00	0.00	0.00
	CHANNELS 6 Xposition Yposition Zposition Zrotation Xrotation Yrotation
	JOINT LeftUpLeg
	{
		OFFSET	 0.126116	-0.014019	-0.065224
		CHANNELS 3 Zrotation Xrotation Yrotation
		JOINT LeftLeg
		{
			OFFSET	 0.000000	 0.000000	 0.569914
			CHANNELS 3 Zrotation Xrotation Yrotation
			JOINT LeftFoot
			{
				OFFSET	 0.000000	 0.000000	 0.544423
				CHANNELS 3 Zrotation Xrotation Yrotation
				JOINT LeftToeBase
				{
					OFFSET	 0.000000	 0.000000	 0.207117
					CHANNELS 3 Zrotation Xrotation Yrotation
					End Site
					{
						OFFSET	 0.000000	 0.000000	 0.207117
					}
				}
			}
		}
	}
	JOINT RightUpLeg
	{
		OFFSET	-0.124023	-0.008373	-0.065224
		CHANNELS 3 Zrotation Xrotation Yrotation
		JOINT RightLeg
		{
			OFFSET	 0.000000	 0.000000	 0.570047
			CHANNELS 3 Zrotation Xrotation Yrotation
			JOINT RightFoot
			{
				OFFSET	 0.000000	 0.000000	 0.544354
				CHANNELS 3 Zrotation Xrotation Yrotation
				JOINT RightToeBase
				{
					OFFSET	 0.000000	 0.000000	 0.207540
					CHANNELS 3 Zrotation Xrotation Yrotation
					End Site
					{
						OFFSET	 0.000000	 0.000000	 0.207540
					}
				}
			}
		}
	}
	JOINT Spine
	{
		OFFSET	 0.000184	-0.007763	 0.117403
		CHANNELS 3 Zrotation Xrotation Yrotation
		JOINT Spine1
		{
			OFFSET	 0.000000	 0.000000	 0.137269
			CHANNELS 3 Zrotation Xrotation Yrotation
			JOINT Spine2
			{
				OFFSET	 0.000000	 0.000000	 0.156879
				CHANNELS 3 Zrotation Xrotation Yrotation
				JOINT LeftShoulder
				{
					OFFSET	 0.080501	-0.002496	 0.160144
					CHANNELS 3 Zrotation Xrotation Yrotation
					JOINT LeftArm
					{
						OFFSET	 0.000000	 0.000000	 0.164363
						CHANNELS 3 Zrotation Xrotation Yrotation
						JOINT LeftForeArm
						{
							OFFSET	 0.000000	 0.000000	 0.364576
							CHANNELS 3 Zrotation Xrotation Yrotation
							JOINT LeftHand
							{
								OFFSET	 0.000000	 0.000000	 0.360812
								CHANNELS 3 Zrotation Xrotation Yrotation
								JOINT LeftHandIndex1
								{
									OFFSET	 0.000000	 0.000000	 0.086006
									CHANNELS 3 Zrotation Xrotation Yrotation
									JOINT LeftHandIndex2
									{
										OFFSET	 0.000000	 0.000000	 0.047236
										CHANNELS 3 Zrotation Xrotation Yrotation
										JOINT LeftHandIndex3
										{
											OFFSET	-0.004284	-0.000551	 0.038166
											CHANNELS 3 Zrotation Xrotation Yrotation
											End Site
											{
												OFFSET	-0.004284	-0.000551	 0.038166
											}
										}
									}
								}
							}
						}
					}
				}
				JOINT Neck
				{
					OFFSET	 0.000000	 0.000000	 0.176489
					CHANNELS 3 Zrotation Xrotation Yrotation
					JOINT Head
					{
						OFFSET	 0.000000	-0.001747	 0.077940
						CHANNELS 3 Zrotation Xrotation Yrotation
						End Site
						{
							OFFSET	 0.000000	-0.001747	 0.077940
						}
					}
				}
				JOINT RightShoulder
				{
					OFFSET	-0.080363	 0.000306	 0.159706
					CHANNELS 3 Zrotation Xrotation Yrotation
					JOINT RightArm
					{
						OFFSET	 0.000000	 0.000000	 0.164196
						CHANNELS 3 Zrotation Xrotation Yrotation
						JOINT RightForeArm
						{
							OFFSET	 0.000000	 0.000000	 0.365611
							CHANNELS 3 Zrotation Xrotation Yrotation
							JOINT RightHand
							{
								OFFSET	 0.000000	 0.000000	 0.360648
								CHANNELS 3 Zrotation Xrotation Yrotation
								JOINT RightHandIndex1
								{
									OFFSET	 0.000000	 0.000000	 0.069977
									CHANNELS 3 Zrotation Xrotation Yrotation
									JOINT RightHandIndex2
									{
										OFFSET	 0.000000	 0.000000	 0.052305
										CHANNELS 3 Zrotation Xrotation Yrotation
										JOINT RightHandIndex3
										{
											OFFSET	 0.009002	-0.000782	 0.042196
											CHANNELS 3 Zrotation Xrotation Yrotation
											End Site
											{
												OFFSET	 0.009002	-0.000782	 0.042196
											}
										}
									}
								}
							}
						}
					}
				}
			}
		}
	}
}
MOTION
Frames:    7
Frame Time: 0.03333334
-4.919640	-17.031710	 0.106007	-35.627950	 8.133842	 1.708369	 4.529015	-21.977220	 174.070800	-1.633559	-40.382870	-0.204191	 0.045056	 84.823920	-0.519603	-2.385748	 28.471690	-0.000406	-2.507679	-22.842540	-178.748100	-0.114481	-41.336590	 0.001516	-0.199770	 85.772420	 0.443438	 2.407687	 17.354600	-0.225145	-5.794887	 9.092023	 0.009809	-9.021973	 7.076910	-2.063295	-10.518940	 4.348524	-0.297781	-117.569400	 89.445040	-151.692800	 58.560660	 60.602080	-80.892840	-4.191152	-4.477795	-21.033720	 5.357648	-16.465150	-5.564398	-3.812334	 37.924440	-2.927599	-2.450526	 36.184240	 0.754587	-1.378229	 35.397820	-2.634230	 0.461549	 2.792955	-0.639236	-2.136065	 7.249478	 0.374406	 94.631000	 86.890950	 171.705400	-56.323980	 71.351770	 73.970760	-3.257925	-13.590550	 26.094170	-22.497290	-17.307830	 10.031940	 6.437017	 35.671460	-0.771858	 2.830251	 35.756010	-7.813440	-2.350882	 35.473990	 5.254307
-4.918301	-17.030580	 0.110904	-35.640990	 8.042362	 1.726807	 4.533583	-22.117320	 174.172000	-1.675938	-40.151290	-0.212246	 0.120744	 84.678670	-0.609229	-2.385767	 28.468060	-0.000327	-2.468887	-23.003480	-178.758900	-0.121500	-41.010000	 0.008846	-0.268068	 85.596120	 0.522807	 2.407694	 17.421240	-0.223841	-5.842775	 9.024672	-0.025298	-9.026892	 6.888875	-2.060774	-10.513090	 4.192356	-0.312009	-115.676000	 89.397040	-153.546900	 56.049800	 59.835090	-78.156020	-3.685340	-4.356557	-20.901380	 5.064509	-16.479400	-5.582215	-3.812334	 37.924440	-2.927599	-2.450526	 36.184240	 0.754587	-1.378229	 35.397820	-2.634230	 0.456604	 2.630309	-0.630391	-2.145736	 7.087086	 0.377083	 94.719500	 86.905730	 171.577000	-53.478510	 70.178100	 71.749340	-3.173125	-12.966100	 25.883970	-21.477350	-17.320730	 10.049710	 6.437017	 35.671460	-0.771858	 2.830251	 35.756010	-7.813440	-2.350882	 35.473990	 5.254307
-4.917811	-17.030400	 0.110301	-35.655520	 8.051506	 1.774035	 4.516530	-22.265050	 174.135200	-1.717103	-40.436720	-0.256512	 0.054532	 84.772650	-0.587459	-2.385686	 28.485520	-0.000703	-2.459039	-23.149170	-178.765400	-0.096266	-41.229050	 0.036488	-0.379052	 85.676280	 0.666444	 2.407685	 17.626190	-0.219840	-5.905293	 9.081470	-0.060524	-9.023576	 6.869036	-2.080724	-10.513210	 4.158310	-0.315150	-115.645200	 89.393810	-153.565000	 55.916900	 59.474080	-78.012440	-3.727469	-4.243502	-21.158320	 4.622877	-16.502870	-5.607709	-3.812334	 37.924440	-2.927599	-2.450526	 36.184240	 0.754587	-1.378229	 35.397820	-2.634230	 0.450511	 2.570816	-0.605566	-2.143195	 7.069301	 0.340235	 94.718970	 86.897710	 171.565400	-53.405960	 69.920060	 71.815410	-3.136243	-12.925680	 26.067150	-21.226390	-17.339200	 10.075310	 6.437017	 35.671460	-0.771858	 2.830251	 35.756010	-7.813440	-2.350882	 35.473990	 5.254307
-4.917196	-17.030040	 0.109379	-35.670350	 8.042691	 1.810226	 4.499957	-22.483310	 174.096700	-1.746385	-40.785930	-0.293558	 0.077711	 84.882620	-0.646351	-2.385452	 28.539180	-0.001862	-2.441434	-23.327770	-178.769000	-0.080232	-41.511020	 0.064659	-0.510442	 85.768860	 0.829498	 2.407664	 17.788350	-0.216667	-5.997942	 9.157730	-0.086382	-9.019233	 6.847545	-2.099816	-10.514730	 4.119305	-0.318790	-115.466300	 89.386110	-153.724800	 55.721320	 59.030190	-77.823220	-3.802701	-4.095633	-21.483760	 4.054182	-16.537510	-5.646699	-3.812334	 37.924440	-2.927599	-2.450526	 36.184240	 0.754587	-1.378229	 35.397820	-2.634230	 0.441464	 2.480680	-0.586054	-2.142117	 7.064281	 0.289994	 94.724040	 86.890770	 171.546300	-53.278050	 69.590870	 71.863250	-3.094361	-12.896590	 26.342110	-20.912200	-17.367320	 10.114910	 6.437017	 35.671460	-0.771858	 2.830251	 35.756010	-7.813440	-2.350882	 35.473990	 5.254307
-4.916365	-17.029580	 0.108312	-35.695440	 8.033778	 1.826895	 4.510231	-22.773560	 174.071800	-1.776048	-41.162690	-0.313659	 0.175600	 84.996800	-0.760468	-2.385246	 28.583250	-0.002825	-2.428739	-23.530930	-178.749800	-0.066278	-41.828870	 0.090821	-0.645873	 85.863940	 0.992641	 2.407652	 17.930490	-0.213889	-6.108816	 9.243814	-0.097272	-9.011434	 6.821182	-2.114058	-10.518060	 4.074734	-0.323003	-115.189000	 89.373490	-153.976500	 55.480600	 58.585960	-77.637480	-3.887073	-3.953178	-21.845410	 3.487915	-16.579410	-5.694954	-3.812334	 37.924440	-2.927599	-2.450526	 36.184240	 0.754587	-1.378229	 35.397820	-2.634230	 0.431596	 2.372794	-0.573844	-2.145965	 7.067492	 0.254871	 94.733850	 86.884800	 171.520500	-53.090370	 69.239520	 71.862710	-3.044519	-12.881810	 26.677330	-20.571710	-17.401940	 10.164880	 6.437017	 35.671460	-0.771858	 2.830251	 35.756010	-7.813440	-2.350882	 35.473990	 5.254307
-4.915386	-17.028980	 0.107046	-35.734180	 8.043039	 1.834828	 4.534022	-23.094780	 174.049400	-1.810338	-41.599230	-0.329910	 0.284988	 85.125280	-0.879554	-2.385143	 28.607190	-0.003336	-2.418634	-23.784810	-178.718600	-0.055568	-42.210720	 0.115637	-0.796957	 85.969930	 1.167889	 2.407625	 18.077210	-0.211014	-6.247794	 9.346519	-0.098302	-9.003159	 6.783982	-2.122867	-10.524630	 4.017982	-0.328439	-114.834500	 89.356840	-154.294700	 55.164100	 58.152100	-77.439400	-3.895299	-3.862294	-22.270470	 3.032854	-16.631990	-5.755410	-3.812334	 37.924440	-2.927599	-2.450526	 36.184240	 0.754587	-1.378229	 35.397820	-2.634230	 0.419152	 2.243435	-0.566948	-2.156517	 7.072586	 0.243721	 94.748370	 86.878200	 171.485400	-52.826150	 68.849010	 71.815120	-2.974196	-12.877700	 27.093210	-20.181390	-17.445580	 10.228830	 6.437017	 35.671460	-0.771858	 2.830251	 35.756010	-7.813440	-2.350882	 35.473990	 5.254307
-4.914236	-17.028170	 0.105486	-35.782290	 8.066593	 1.844293	 4.575513	-23.448590	 174.029100	-1.852303	-42.122810	-0.342805	 0.409676	 85.276070	-1.007538	-2.385039	 28.631450	-0.003861	-2.408460	-24.117500	-178.683400	-0.053161	-42.683090	 0.137445	-0.970812	 86.093300	 1.360046	 2.407585	 18.249590	-0.207637	-6.428522	 9.474633	-0.094530	-8.995702	 6.732720	-2.133054	-10.533750	 3.944956	-0.335467	-114.402300	 89.334710	-154.681200	 54.738250	 57.759880	-77.220020	-3.806624	-3.855436	-22.789450	 2.755435	-16.698880	-5.831504	-3.812334	 37.924440	-2.927599	-2.450526	 36.184240	 0.754587	-1.378229	 35.397820	-2.634230	 0.402777	 2.090437	-0.557875	-2.170679	 7.073386	 0.249450	 94.768140	 86.868870	 171.437200	-52.487120	 68.404220	 71.758710	-2.868055	-12.882890	 27.609370	-19.728460	-17.515660	 10.295010	 6.437017	 35.671460	-0.771858	 2.830251	 35.756010	-7.813440	-2.350882	 35.473990	 5.254307
